<?xml version="1.0" standalone="no"?>
<!DOCTYPE svg PUBLIC "-//W3C//DTD SVG 20010904//EN"
 "http://www.w3.org/TR/2001/REC-SVG-20010904/DTD/svg10.dtd">
<svg version="1.0" xmlns="http://www.w3.org/2000/svg"
 width="512.000000pt" height="512.000000pt" viewBox="0 0 512.000000 512.000000"
 preserveAspectRatio="xMidYMid meet">
<metadata>
Created by potrace 1.11, written by Peter Selinger 2001-2013
</metadata>
<g transform="translate(0.000000,512.000000) scale(0.100000,-0.100000)"
fill="#000000" stroke="none">
<path d="M788 4289 c-157 -37 -293 -182 -323 -344 -11 -63 -13 -2726 -1 -2774
11 -49 30 -97 50 -132 57 -100 174 -185 284 -208 38 -8 560 -11 1777 -11 1694
0 1723 1 1780 20 150 52 247 151 292 299 17 54 18 146 17 1427 l-1 1369 -22
65 c-37 107 -94 180 -187 236 -47 30 -59 35 -116 52 -35 10 -3507 12 -3550 1z
m3552 -165 c56 -26 112 -79 142 -136 22 -41 23 -53 23 -252 l0 -209 -1925 -1
c-1059 -1 -1936 1 -1948 3 l-24 4 4 206 c4 231 10 254 85 328 35 34 50 42 120
67 23 9 476 12 1755 11 1716 -1 1723 -1 1768 -21z m103 -754 l67 0 -1 -1082
c0 -1044 -1 -1085 -19 -1133 -20 -51 -68 -110 -115 -141 -61 -40 -67 -40
-1840 -39 -1666 1 -1711 1 -1750 20 -70 33 -114 76 -145 139 l-29 61 -1 1087
0 1087 37 3 c28 2 3001 1 3796 -2z"/>
<path d="M1014 3956 c-39 -17 -75 -67 -78 -109 -4 -38 28 -101 62 -123 33 -22
109 -20 141 3 98 72 63 223 -55 238 -22 3 -52 -1 -70 -9z"/>
<path d="M1421 3947 c-78 -48 -80 -166 -6 -220 33 -23 104 -24 142 -2 56 33
80 112 52 168 -13 25 -57 66 -73 68 -61 7 -88 4 -115 -14z"/>
<path d="M1873 3960 c-13 -5 -23 -7 -23 -5 0 8 -56 -50 -58 -60 -12 -65 -11
-83 5 -114 26 -49 62 -73 115 -73 98 -2 155 82 120 178 -13 35 -25 48 -57 64
-45 22 -68 24 -102 10z"/>
<path d="M1763 2822 c-25 -4 -60 -48 -58 -72 1 -8 3 -21 3 -27 1 -7 121 -132
267 -278 146 -146 265 -268 265 -272 0 -3 -117 -123 -261 -267 -144 -143 -265
-271 -270 -283 -10 -27 1 -61 29 -86 46 -42 64 -28 404 312 175 175 318 321
318 323 0 12 -643 646 -658 650 -9 2 -27 2 -39 0z"/>
<path d="M2568 1685 c-3 -3 -15 -8 -28 -10 -64 -12 -85 -94 -35 -135 15 -13
85 -15 434 -16 487 -2 477 -3 473 85 -1 14 -11 34 -22 45 -20 20 -30 21 -413
21 -215 0 -395 3 -398 8 -3 4 -8 5 -11 2z"/>
</g>
</svg>
